<?xml version="1.0" encoding="UTF-8" standalone="no"?>
<!-- Created with Inkscape (http://www.inkscape.org/) -->

<svg
   xmlns:osb="http://www.openswatchbook.org/uri/2009/osb"
   xmlns:dc="http://purl.org/dc/elements/1.1/"
   xmlns:cc="http://creativecommons.org/ns#"
   xmlns:rdf="http://www.w3.org/1999/02/22-rdf-syntax-ns#"
   xmlns:svg="http://www.w3.org/2000/svg"
   xmlns="http://www.w3.org/2000/svg"
   xmlns:xlink="http://www.w3.org/1999/xlink"
   xmlns:sodipodi="http://sodipodi.sourceforge.net/DTD/sodipodi-0.dtd"
   xmlns:inkscape="http://www.inkscape.org/namespaces/inkscape"
   width="210mm"
   height="297mm"
   viewBox="0 0 210 297"
   version="1.1"
   id="svg8"
   inkscape:version="0.92.2 (5c3e80d, 2017-08-06)"
   sodipodi:docname="logo.svg">
  <defs
     id="defs2">
    <linearGradient
       id="linearGradient884"
       osb:paint="solid">
      <stop
         style="stop-color:#ffffff;stop-opacity:1;"
         offset="0"
         id="stop882" />
    </linearGradient>
    <linearGradient
       inkscape:collect="always"
       id="linearGradient870">
      <stop
         style="stop-color:#ff0000;stop-opacity:1"
         offset="0"
         id="stop866" />
      <stop
         style="stop-color:#9f8aff;stop-opacity:1"
         offset="1"
         id="stop868" />
    </linearGradient>
    <linearGradient
       inkscape:collect="always"
       xlink:href="#linearGradient870"
       id="linearGradient872"
       x1="42.487247"
       y1="269.61371"
       x2="148.1819"
       y2="64.996513"
       gradientUnits="userSpaceOnUse"
       gradientTransform="matrix(1.0544054,0.06094761,-0.04617534,0.79884234,8.8775699,-5.003455)" />
  </defs>
  <sodipodi:namedview
     id="base"
     pagecolor="#ffffff"
     bordercolor="#666666"
     borderopacity="1.0"
     inkscape:pageopacity="0.0"
     inkscape:pageshadow="2"
     inkscape:zoom="0.59472656"
     inkscape:cx="642.03368"
     inkscape:cy="437.91591"
     inkscape:document-units="mm"
     inkscape:current-layer="layer2"
     showgrid="false"
     inkscape:window-width="1920"
     inkscape:window-height="1017"
     inkscape:window-x="1912"
     inkscape:window-y="-8"
     inkscape:window-maximized="1" />
  <metadata
     id="metadata5">
    <rdf:RDF>
      <cc:Work
         rdf:about="">
        <dc:format>image/svg+xml</dc:format>
        <dc:type
           rdf:resource="http://purl.org/dc/dcmitype/StillImage" />
        <dc:title></dc:title>
      </cc:Work>
    </rdf:RDF>
  </metadata>
  <g
     inkscape:groupmode="layer"
     id="layer2"
     inkscape:label="Layer 2">
    <path
       style="fill:url(#linearGradient872);fill-opacity:1;stroke-width:0.32430965"
       d="m 78.936106,216.8849 c 0,0 -13.219381,-9.48415 -15.524889,-11.89289 -0.954428,-7.77776 -1.670275,-2.74451 -2.595068,-4.05653 -2.046443,-2.90333 -5.198173,-6.49164 -6.523768,-8.42591 -2.414988,-2.86088 -3.022295,-8.10431 -3.781154,-11.67757 -0.562326,-2.93034 -0.0044,-5.99469 0.483307,-8.93836 0.902857,-5.44895 2.594092,-10.65478 4.489658,-15.94988 3.628497,-11.13751 5.888054,-15.40854 10.109897,-22.44459 4.084585,-6.8073 9.403594,-12.81088 14.558108,-18.8486 4.407384,-5.16257 9.162483,-10.02418 13.964629,-14.821735 7.775964,-7.76854 24.021954,-22.58955 24.021954,-22.58955 0,0 -22.35219,15.92963 -31.616728,23.430515 -2.105909,2.00899 -7.385145,5.50563 -10.772108,8.61498 -6.10297,5.60274 -12.347263,11.24521 -17.12267,18.01517 -4.107348,5.82288 -7.66186,12.23118 -9.65578,19.07227 -2.962627,10.16469 -4.102069,21.06627 -3.125436,31.60877 0.616309,6.65289 1.933064,11.26667 5.602974,19.2451 2.277714,4.91509 5.94438,13.30338 5.94438,13.30338 0,0 -21.63402,-19.41962 -23.032428,-21.70339 -0.592985,-0.9684 -1.729732,-2.68908 -2.526098,-3.82372 -1.954526,-2.78476 -4.827654,-5.57002 -4.827654,-5.57002 3.570671,0.58595 11.038057,6.37048 11.038057,6.37048 0,0 -3.934627,-3.34008 -4.451469,-4.71483 -0.443063,-1.18911 -1.036646,-2.23452 -2.078634,-4.11032 -1.041987,-1.8758 -2.392669,-4.9705 -2.372733,-5.3154 0.01994,-0.34489 -0.592811,-6.14353 -0.592811,-6.14353 0,0 0.368347,-0.27236 3.061003,4.5553 1.577624,2.82852 3.27216,3.7038 2.505886,1.55864 -0.241073,-0.67488 -4.276275,-6.4551 -4.930785,-8.03554 -1.323407,-3.19561 -1.252271,1.02789 -1.993818,-6.68221 -0.467696,-4.8628 2.195854,-10.23547 2.929387,-9.9871 0.168969,0.0572 1.159565,1.17119 2.201327,2.47552 1.863935,2.33377 3.074992,3.15221 3.121886,2.1098 0.01264,-0.28282 -0.406799,-1.74156 -0.932265,-3.24166 -0.525406,-1.50009 -0.945055,-2.90524 -0.932494,-3.12255 -0.675276,-1.98242 -1.65346,-3.39998 -2.88024,-5.33783 l 0.598504,-7.2333 c 0.622812,-7.52706 0.775482,-9.72227 2.836368,-15.58659 1.198254,-3.40968 3.451733,-8.10412 3.940689,-8.32538 1.224012,1.86373 6.992462,2.31166 8.084621,2.37573 3.2615,0.18852 5.161447,0.43188 6.357351,0.8143 2.912691,0.93142 2.656107,0.21253 -0.596091,-1.67001 -3.951365,-2.61995 -11.005662,-8.25394 -11.005662,-8.25394 l 1.697479,-3.035585 c 2.024313,-3.62007 2.366306,-4.08236 6.08427,-8.22449 1.584661,-1.76545 3.7731,-4.3035 4.8632,-5.64014 4.827559,-5.91934 15.633599,-14.05799 17.337938,-13.95948 3.426058,1.95426 3.953496,2.80284 5.334379,3.81614 0.819211,0.60115 6.951724,5.37329 7.030334,5.32047 0.240642,-0.16169 -9.716573,-10.75656 -10.06263,-10.8772 1.990487,-2.07663 3.238842,-3.10321 5.980002,-4.90737 1.9636,-1.28613 6.475008,-5.37836 7.718449,-6.5033 3.536019,-3.19906 9.709647,-5.60051 14.4243,-8.53207 1.96872,-1.22415 5.7858,-3.78006 5.7858,-3.78006 -0.60285,2.4007 0.50771,2.93294 1.15789,4.75495 0.78752,1.14436 5.94358,9.40092 5.94358,9.40092 0,0 -2.03146,-6.89261 -2.43899,-10.38567 -0.0856,-1.34413 -1.60046,-6.16092 -1.60046,-6.16092 0,0 4.48809,-1.84654 5.26374,-2.06259 2.25954,-0.37184 5.32249,-1.70102 8.13489,-2.19465 7.18789,-1.26164 10.10498,-3.6428 22.06491,-1.91316 6.52128,0.94309 8.99009,1.40148 11.44679,2.12532 1.41281,0.41627 3.23288,0.88918 4.04461,1.05091 3.14501,0.6266 13.1467,5.10993 17.69459,7.82539 3.66821,2.19021 6.70782,5.52716 6.70782,5.52716 -11.76061,0.35497 -13.65576,-0.44086 -23.21257,3.01583 -2.7653,0.98074 -8.27209,4.16797 -12.39936,6.26924 -3.42539,1.74393 -6.89538,3.31258 -10.26153,5.26046 5.29333,-1.38835 6.77953,-1.34077 10.1369,-2.08989 5.65456,-1.26171 11.22581,-2.71224 16.84756,-4.04881 6.55312,-1.55803 12.37625,-3.20835 19.6798,-4.62849 0,0 2.41951,13.80654 -1.04229,20.47576 -0.67837,1.38872 -1.10649,2.7354 -1.03608,3.25918 0.0875,0.6513 -0.19954,1.23811 -1.06203,2.17068 -0.65009,0.70295 -2.32065,2.73914 -3.71235,4.52489 -5.11303,3.71335 -14.77127,17.248195 -19.84432,17.820065 -0.37054,-0.0214 -8.57831,-7.788775 -13.93492,-10.729445 -3.00083,-1.6474 -9.93354,-3.72817 -9.93354,-3.72817 0,0 4.72045,4.37627 5.57913,5.47065 1.70819,3.729905 16.22524,12.686215 16.22524,12.686215 -1.74348,0.58482 -11.29497,9.77454 -18.26775,13.45509 -6.59299,3.48007 -21.79465,7.8993 -21.79465,7.8993 l -13.3169,-10.77411 c 0,0 2.62541,5.39574 4.6114,7.83513 1.61308,1.98135 5.8423,5.41281 5.8423,5.41281 l -20.860267,21.89629 c 0,0 -2.48409,-3.1254 -4.341387,-4.21952 -2.728072,-1.60707 -6.511826,-4.37552 -9.458834,-3.1308 l 10.673393,8.86433 c 0,0 -2.580824,4.59883 -3.819068,6.91564 -2.252934,4.21532 -4.990531,10.19021 -6.568108,12.7076 -0.510781,0.81508 -0.968279,2.28652 -1.190389,3.82864 -0.380089,1.50276 1.567343,5.10045 1.567343,5.10045 0,0 -10.623281,-8.03364 -13.411966,-10.84033 -2.308734,-2.3278 -5.347355,-6.45598 -5.383522,-5.83028 -0.0092,0.15888 2.388967,3.98401 2.975212,4.44188 0.628699,0.49103 2.472819,3.2296 4.495957,6.67663 1.886525,3.21427 3.96112,6.59128 4.610216,7.50449 2.922859,3.58135 5.324028,3.52896 5.324028,3.52896 0,0 -5.671467,8.2897 -4.793706,8.34043 0.144285,0.008 2.583926,-1.75028 3.938904,-2.52107 1.936749,-1.10173 5.974599,-2.99791 5.974599,-2.99791 0,0 -1.091587,5.78154 -1.962802,7.47065 -11.655437,7.24068 -3.465737,16.01594 -3.465737,16.01594 z"
       id="path840"
       inkscape:connector-curvature="0"
       sodipodi:nodetypes="cccccacaaaccaaaacccccccssccccsccccccsscccccsscccccccaccccccassccccacaaccccccacccaccaccaccacccccccccsaccc" />
  </g>
  <g
     inkscape:label="Layer 1"
     inkscape:groupmode="layer"
     id="layer1" />
  <g
     inkscape:groupmode="layer"
     id="layer3"
     inkscape:label="Layer 3" />
</svg>
