<svg xmlns="http://www.w3.org/2000/svg" xmlns:xlink="http://www.w3.org/1999/xlink" width="210mm" height="297mm" viewBox="0 0 210 297"><defs><linearGradient id="a"><stop offset="0" stop-color="red"/><stop offset="1" stop-color="#9f8aff"/></linearGradient><linearGradient xlink:href="#a" id="b" x1="42.487" y1="269.614" x2="148.182" y2="64.997" gradientUnits="userSpaceOnUse" gradientTransform="matrix(1.0544 .06095 -.04618 .79884 8.878 -5.003)"/></defs><path d="M78.936 216.885s-13.22-9.484-15.525-11.893c-.954-7.778-1.67-2.744-2.595-4.057-2.046-2.903-5.198-6.491-6.524-8.425-2.415-2.861-3.022-8.105-3.78-11.678-.563-2.93-.005-5.995.483-8.938.902-5.45 2.594-10.655 4.49-15.95 3.628-11.138 5.887-15.409 10.11-22.445 4.084-6.807 9.403-12.81 14.557-18.848 4.408-5.163 9.163-10.025 13.965-14.822 7.776-7.769 24.022-22.59 24.022-22.59s-22.352 15.93-31.617 23.43c-2.106 2.01-7.385 5.506-10.772 8.616-6.103 5.603-12.347 11.245-17.123 18.015-4.107 5.823-7.662 12.231-9.656 19.072-2.962 10.165-4.102 21.066-3.125 31.609.616 6.653 1.933 11.267 5.603 19.245 2.278 4.915 5.944 13.303 5.944 13.303s-21.634-19.42-23.032-21.703a89.547 89.547 0 0 0-2.526-3.824c-1.955-2.784-4.828-5.57-4.828-5.57 3.57.586 11.038 6.37 11.038 6.37s-3.934-3.34-4.451-4.714c-.443-1.19-1.037-2.235-2.079-4.11-1.042-1.876-2.392-4.97-2.373-5.316.02-.345-.592-6.143-.592-6.143s.368-.273 3.06 4.555c1.578 2.829 3.273 3.704 2.507 1.559-.242-.675-4.277-6.455-4.931-8.036-1.324-3.195-1.253 1.028-1.994-6.682-.468-4.863 2.196-10.236 2.93-9.987.168.057 1.159 1.171 2.2 2.475 1.865 2.334 3.076 3.153 3.123 2.11.012-.283-.407-1.741-.933-3.242-.525-1.5-.945-2.905-.932-3.122-.676-1.982-1.654-3.4-2.88-5.338l.598-7.233c.623-7.527.776-9.722 2.836-15.587 1.199-3.41 3.452-8.104 3.941-8.325 1.224 1.864 6.993 2.311 8.085 2.376 3.261.188 5.161.431 6.357.814 2.913.931 2.656.212-.596-1.67-3.951-2.62-11.006-8.254-11.006-8.254l1.698-3.036c2.024-3.62 2.366-4.082 6.084-8.224 1.585-1.766 3.773-4.304 4.863-5.64 4.828-5.92 15.634-14.058 17.338-13.96 3.426 1.954 3.954 2.803 5.335 3.816.819.602 6.951 5.374 7.03 5.32.24-.16-9.717-10.756-10.063-10.876 1.99-2.077 3.24-3.104 5.98-4.908 1.964-1.286 6.475-5.378 7.719-6.503 3.536-3.2 9.71-5.6 14.424-8.532 1.969-1.224 5.786-3.78 5.786-3.78-.603 2.4.508 2.933 1.158 4.755.787 1.144 5.943 9.4 5.943 9.4s-2.031-6.892-2.439-10.385c-.085-1.344-1.6-6.16-1.6-6.16s4.488-1.847 5.264-2.063c2.26-.372 5.322-1.701 8.134-2.195 7.188-1.262 10.105-3.643 22.065-1.913 6.522.943 8.99 1.401 11.447 2.125 1.413.416 3.233.89 4.045 1.05 3.145.628 13.146 5.11 17.694 7.826 3.669 2.19 6.708 5.527 6.708 5.527-11.76.355-13.656-.44-23.212 3.016-2.766.981-8.272 4.168-12.4 6.27-3.425 1.743-6.895 3.312-10.261 5.26 5.293-1.388 6.78-1.34 10.137-2.09 5.654-1.262 11.225-2.712 16.847-4.049 6.553-1.558 12.376-3.208 19.68-4.628 0 0 2.42 13.806-1.042 20.476-.679 1.388-1.107 2.735-1.036 3.259.087.651-.2 1.238-1.062 2.17-.65.703-2.321 2.74-3.713 4.525-5.113 3.714-14.771 17.249-19.844 17.82-.37-.021-8.578-7.788-13.935-10.729-3-1.647-9.934-3.728-9.934-3.728s4.72 4.376 5.58 5.47c1.708 3.73 16.225 12.687 16.225 12.687-1.744.584-11.295 9.774-18.268 13.455-6.593 3.48-21.795 7.899-21.795 7.899l-13.316-10.774s2.625 5.396 4.61 7.835c1.614 1.981 5.843 5.413 5.843 5.413l-20.86 21.896s-2.484-3.125-4.341-4.22c-2.728-1.606-6.512-4.375-9.46-3.13l10.674 8.864s-2.58 4.599-3.819 6.916c-2.253 4.215-4.99 10.19-6.568 12.707-.51.815-.968 2.287-1.19 3.83-.38 1.502 1.567 5.1 1.567 5.1s-10.623-8.034-13.412-10.84c-2.309-2.329-5.347-6.457-5.384-5.831-.009.159 2.39 3.984 2.976 4.442.628.49 2.472 3.23 4.496 6.676 1.886 3.215 3.96 6.592 4.61 7.505 2.923 3.581 5.324 3.529 5.324 3.529s-5.672 8.29-4.794 8.34c.144.008 2.584-1.75 3.939-2.52 1.937-1.103 5.975-2.999 5.975-2.999s-1.092 5.782-1.963 7.471c-11.656 7.24-3.466 16.016-3.466 16.016z" fill="url(#b)"/></svg>